<?xml version="1.0" encoding="UTF-8"?>
<!DOCTYPE svg PUBLIC "-//W3C//DTD SVG 1.1//EN" "http://www.w3.org/Graphics/SVG/1.1/DTD/svg11.dtd">
<!-- Creator: CorelDRAW 2019 (64-Bit Evaluation Version) -->
<svg xmlns="http://www.w3.org/2000/svg" xml:space="preserve" width="630mm" height="235mm" version="1.1" style="shape-rendering:geometricPrecision; text-rendering:geometricPrecision; image-rendering:optimizeQuality; fill-rule:evenodd; clip-rule:evenodd"
viewBox="0 0 63000 23500"
 xmlns:xlink="http://www.w3.org/1999/xlink"
 xmlns:xodm="http://www.corel.com/coreldraw/odm/2003">
 <defs>
  <style type="text/css">
   <![CDATA[
    .str4 {stroke:#00AFEF;stroke-width:400;stroke-miterlimit:22.9256}
    .str5 {stroke:#00AFEF;stroke-width:400.01;stroke-miterlimit:22.9256}
    .str2 {stroke:#6D3CC1;stroke-width:400.01;stroke-miterlimit:22.9256}
    .str3 {stroke:#6D3CC1;stroke-width:500;stroke-miterlimit:22.9256}
    .str1 {stroke:#0098DA;stroke-width:17.64;stroke-miterlimit:2.61313}
    .str0 {stroke:#00AFEF;stroke-width:7.62;stroke-miterlimit:2.61313}
    .fil6 {fill:none}
    .fil1 {fill:none;fill-rule:nonzero}
    .fil3 {fill:#FEFEFE}
    .fil7 {fill:#00AFEF;fill-rule:nonzero}
    .fil2 {fill:#00AFEF;fill-rule:nonzero}
    .fil0 {fill:#6D3CC1;fill-rule:nonzero}
    .fil4 {fill:#6D3CC1;fill-rule:nonzero}
    .fil5 {fill:#00C0BC;fill-rule:nonzero}
   ]]>
  </style>
 </defs>
 <g id="Layer_x0020_1">
  <metadata id="CorelCorpID_0Corel-Layer"/>
  <polygon class="fil0" points="26034.71,21038.17 26034.71,20869.02 26894.87,20869.02 26894.87,21038.17 26558.22,21038.17 26558.22,21930.04 26369.81,21930.04 26369.81,21038.17 "/>
  <path id="1" class="fil0" d="M26973.63 21687.08l0 -321.38c0,-161.97 81.33,-242.96 243.99,-242.96l200.77 0c161.63,0 242.45,80.99 242.45,242.96l0 230.66 -506.53 0 0 106.1c0,47.16 23.68,70.73 71.04,70.73l404.6 0 0 96.88 -81.85 59.97 -330.48 0c-162.66,0 -243.99,-80.99 -243.99,-242.96zm180.68 -235.27l327.39 0 0 -101.49c0,-48.18 -24.2,-72.27 -72.58,-72.27l-183.77 0c-47.36,0 -71.04,24.09 -71.04,72.27l0 101.49z"/>
  <path id="2" class="fil0" d="M27867.77 21687.08l0 -321.38c0,-161.97 81.33,-242.96 243.99,-242.96l291.87 0 81.85 59.97 0 95.34 -366 0c-47.35,0 -71.03,24.09 -71.03,72.27l0 352.14c0,47.16 23.68,70.73 71.03,70.73l366 0 0 96.88 -81.85 59.97 -291.87 0c-162.66,0 -243.99,-80.99 -243.99,-242.96z"/>
  <path id="3" class="fil0" d="M28672.34 21930.04l0 -1137.91 180.68 0 0 330.61 264.08 0c161.64,0 242.45,80.99 242.45,242.96l0 564.34 -179.14 0 0 -579.72c0,-48.18 -24.2,-72.27 -72.58,-72.27l-254.81 0 0 651.99 -180.68 0z"/>
  <path id="4" class="fil0" d="M29955.65 21680.93l0 -562.8c0,-166.07 83.38,-249.11 250.17,-249.11l421.59 0 91.11 70.73 0 98.42 -506.52 0c-45.3,0 -67.95,22.55 -67.95,67.66l0 587.4c0,45.11 22.65,67.66 67.95,67.66l506.52 0 0 98.42 -91.11 70.73 -421.59 0c-166.79,0 -250.17,-83.04 -250.17,-249.11z"/>
  <path id="5" class="fil0" d="M30908.46 20985.89l0 -181.45 186.87 0 0 181.45 -186.87 0zm3.1 944.15l0 -807.3 180.68 0 0 807.3 -180.68 0z"/>
  <path id="6" class="fil0" d="M31316.16 21687.08l0 -818.06 180.68 0 0 253.72 274.88 0 0 155.31 -274.88 0 0 424.41c0,47.16 23.68,70.73 71.03,70.73l219.29 0 0 96.88 -80.3 59.97 -146.7 0c-162.68,0 -244,-80.99 -244,-242.96z"/>
  <polygon id="7" class="fil0" points="31872.1,21150.42 31890.63,21122.74 32045.06,21122.74 32250.46,21773.19 32272.07,21773.19 32477.46,21122.74 32633.44,21122.74 32651.96,21150.42 32296.78,22237.58 32142.35,22237.58 32123.82,22209.9 32219.56,21930.04 32126.91,21930.04 "/>
  <path id="8" class="fil0" d="M33124.81 21930.04l0 -283.75c0,-114.88 50.74,-182.69 152.23,-203.42l249.84 -49.24c30.36,-6.04 45.54,-25.91 45.54,-59.6l0 -98.47c0,-38.01 -19.09,-57.01 -57.25,-57.01l-364.34 0 0 -82.92 76.77 -59.6 291.47 0c141.4,0 212.1,69.96 212.1,209.9l0 84.21c0,114.89 -50.75,182.69 -152.24,203.42l-249.83 49.24c-30.36,6.05 -45.55,25.91 -45.55,59.6l0 145.12 447.62 0 0 142.52 -606.36 0z"/>
  <path id="9" class="fil0" d="M33876.91 21720.14l0 -474.21c0,-139.94 70.7,-209.9 212.09,-209.9l182.18 0c141.39,0 212.09,69.96 212.09,209.9l0 474.21c0,139.93 -70.7,209.9 -212.09,209.9l-182.18 0c-141.39,0 -212.09,-69.97 -212.09,-209.9zm158.74 10.37c0,38 19.08,57.01 57.26,57.01l174.36 0c38.16,0 57.25,-19.01 57.25,-57.01l0 -494.95c0,-38.01 -19.09,-57.01 -57.25,-57.01l-174.36 0c-38.18,0 -57.26,19 -57.26,57.01l0 494.95z"/>
  <path id="10" class="fil0" d="M34615.99 21870.44l0 -82.92 403.38 0c38.16,0 57.25,-19.01 57.25,-57.01l0 -149.01c0,-38 -19.09,-57 -57.25,-57l-390.36 0 0 -488.47 567.32 0 0 142.52 -408.57 0 0 203.42 235.52 0c141.39,0 212.09,70.4 212.09,211.2l0 126.97c0,139.93 -70.7,209.9 -212.09,209.9l-330.51 0 -76.78 -59.6z"/>
  <path id="11" class="fil0" d="M35381.11 21720.14l0 -474.21c0,-139.94 70.7,-209.9 212.09,-209.9l182.18 0c141.39,0 212.09,69.96 212.09,209.9l0 474.21c0,139.93 -70.7,209.9 -212.09,209.9l-182.18 0c-141.39,0 -212.09,-69.97 -212.09,-209.9zm158.75 10.37c0,38 19.08,57.01 57.25,57.01l174.36 0c38.16,0 57.26,-19.01 57.26,-57.01l0 -494.95c0,-38.01 -19.1,-57.01 -57.26,-57.01l-174.36 0c-38.17,0 -57.25,19 -57.25,57.01l0 494.95z"/>
  <polygon id="12" class="fil1 str0" points="26034.71,21038.17 26034.71,20869.02 26894.87,20869.02 26894.87,21038.17 26558.22,21038.17 26558.22,21930.04 26369.81,21930.04 26369.81,21038.17 "/>
  <path id="13" class="fil1 str0" d="M26973.63 21687.08l0 -321.38c0,-161.97 81.33,-242.96 243.99,-242.96l200.77 0c161.63,0 242.45,80.99 242.45,242.96l0 230.66 -506.53 0 0 106.1c0,47.16 23.68,70.73 71.04,70.73l404.6 0 0 96.88 -81.85 59.97 -330.48 0c-162.66,0 -243.99,-80.99 -243.99,-242.96zm180.68 -235.27l327.39 0 0 -101.49c0,-48.18 -24.2,-72.27 -72.58,-72.27l-183.77 0c-47.36,0 -71.04,24.09 -71.04,72.27l0 101.49z"/>
  <path id="14" class="fil1 str0" d="M27867.77 21687.08l0 -321.38c0,-161.97 81.33,-242.96 243.99,-242.96l291.87 0 81.85 59.97 0 95.34 -366 0c-47.35,0 -71.03,24.09 -71.03,72.27l0 352.14c0,47.16 23.68,70.73 71.03,70.73l366 0 0 96.88 -81.85 59.97 -291.87 0c-162.66,0 -243.99,-80.99 -243.99,-242.96z"/>
  <path id="15" class="fil1 str0" d="M28672.34 21930.04l0 -1137.91 180.68 0 0 330.61 264.08 0c161.64,0 242.45,80.99 242.45,242.96l0 564.34 -179.14 0 0 -579.72c0,-48.18 -24.2,-72.27 -72.58,-72.27l-254.81 0 0 651.99 -180.68 0z"/>
  <path id="16" class="fil1 str0" d="M29955.65 21680.93l0 -562.8c0,-166.07 83.38,-249.11 250.17,-249.11l421.59 0 91.11 70.73 0 98.42 -506.52 0c-45.3,0 -67.95,22.55 -67.95,67.66l0 587.4c0,45.11 22.65,67.66 67.95,67.66l506.52 0 0 98.42 -91.11 70.73 -421.59 0c-166.79,0 -250.17,-83.04 -250.17,-249.11z"/>
  <path id="17" class="fil1 str0" d="M30908.46 20985.89l0 -181.45 186.87 0 0 181.45 -186.87 0zm3.1 944.15l0 -807.3 180.68 0 0 807.3 -180.68 0z"/>
  <path id="18" class="fil1 str0" d="M31316.16 21687.08l0 -818.06 180.68 0 0 253.72 274.88 0 0 155.31 -274.88 0 0 424.41c0,47.16 23.68,70.73 71.03,70.73l219.29 0 0 96.88 -80.3 59.97 -146.7 0c-162.68,0 -244,-80.99 -244,-242.96z"/>
  <polygon id="19" class="fil1 str0" points="31872.1,21150.42 31890.63,21122.74 32045.06,21122.74 32250.46,21773.19 32272.07,21773.19 32477.46,21122.74 32633.44,21122.74 32651.96,21150.42 32296.78,22237.58 32142.35,22237.58 32123.82,22209.9 32219.56,21930.04 32126.91,21930.04 "/>
  <path id="20" class="fil1 str0" d="M33124.81 21930.04l0 -283.75c0,-114.88 50.74,-182.69 152.23,-203.42l249.84 -49.24c30.36,-6.04 45.54,-25.91 45.54,-59.6l0 -98.47c0,-38.01 -19.09,-57.01 -57.25,-57.01l-364.34 0 0 -82.92 76.77 -59.6 291.47 0c141.4,0 212.1,69.96 212.1,209.9l0 84.21c0,114.89 -50.75,182.69 -152.24,203.42l-249.83 49.24c-30.36,6.05 -45.55,25.91 -45.55,59.6l0 145.12 447.62 0 0 142.52 -606.36 0z"/>
  <path id="21" class="fil1 str0" d="M33876.91 21720.14l0 -474.21c0,-139.94 70.7,-209.9 212.09,-209.9l182.18 0c141.39,0 212.09,69.96 212.09,209.9l0 474.21c0,139.93 -70.7,209.9 -212.09,209.9l-182.18 0c-141.39,0 -212.09,-69.97 -212.09,-209.9zm158.74 10.37c0,38 19.08,57.01 57.26,57.01l174.36 0c38.16,0 57.25,-19.01 57.25,-57.01l0 -494.95c0,-38.01 -19.09,-57.01 -57.25,-57.01l-174.36 0c-38.18,0 -57.26,19 -57.26,57.01l0 494.95z"/>
  <path id="22" class="fil1 str0" d="M34615.99 21870.44l0 -82.92 403.38 0c38.16,0 57.25,-19.01 57.25,-57.01l0 -149.01c0,-38 -19.09,-57 -57.25,-57l-390.36 0 0 -488.47 567.32 0 0 142.52 -408.57 0 0 203.42 235.52 0c141.39,0 212.09,70.4 212.09,211.2l0 126.97c0,139.93 -70.7,209.9 -212.09,209.9l-330.51 0 -76.78 -59.6z"/>
  <path id="23" class="fil1 str0" d="M35381.11 21720.14l0 -474.21c0,-139.94 70.7,-209.9 212.09,-209.9l182.18 0c141.39,0 212.09,69.96 212.09,209.9l0 474.21c0,139.93 -70.7,209.9 -212.09,209.9l-182.18 0c-141.39,0 -212.09,-69.97 -212.09,-209.9zm158.75 10.37c0,38 19.08,57.01 57.25,57.01l174.36 0c38.16,0 57.26,-19.01 57.26,-57.01l0 -494.95c0,-38.01 -19.1,-57.01 -57.26,-57.01l-174.36 0c-38.17,0 -57.25,19 -57.25,57.01l0 494.95z"/>
  <g id="_2026977741120">
   <g>
    <path class="fil2" d="M26771.85 14196.76l-2594.17 -1497.75 -94.4 -54.51 -0.01 -108.5 0 -7812.46 0.01 -108.5 94.4 -54.51 6765.78 -3906.23 94.42 -54.51 94.41 54.51 975.33 563.13 92.92 53.65 0.75 108.62 77.13 11198.21 2799.87 -1615.49 0.1 -4050.11c-30,-7.9 -59.42,-17.62 -88.1,-29.04 -89.44,-35.61 -170.12,-87.55 -238.19,-152l0.35 -0.37c-74.09,-70.23 -133.52,-154.15 -173.49,-246.99 -39.16,-90.95 -60.86,-190.89 -60.86,-295.54 0,-206.64 83.78,-393.74 219.22,-529.17 135.42,-135.43 322.53,-219.21 529.18,-219.21 206.64,0 393.74,83.78 529.17,219.21 135.42,135.44 219.2,322.53 219.2,529.17 0,206.65 -83.78,393.76 -219.2,529.18 -92.86,92.87 -210.02,161.44 -341.11,195.38l-0.09 4158.03 -0.01 108.53 -94.41 54.48 -3173.82 1831.25 -279.54 161.28 -2.22 -323.55 -78.61 -11413.15 -787.98 -454.96 -6576.95 3797.2 0 7595.46 2499.79 1443.26c47.15,-47.67 100.78,-89.15 159.52,-123.05 110.63,-63.85 238.06,-100.4 372.96,-100.4 102.26,0 200.79,21.28 291.38,59.71l0.74 0c92.97,39.45 176.48,97.41 245.96,169.3 66.02,68.31 119.26,149.55 155.72,239.75 35.2,87.06 54.59,181.49 54.59,279.61 0,206.64 -83.78,393.74 -219.21,529.19 -135.43,135.43 -322.54,219.21 -529.18,219.21 -206.65,0 -393.76,-83.78 -529.19,-219.2 -135.42,-135.45 -219.2,-322.55 -219.2,-529.2 0,-66.3 8.91,-131.27 25.62,-193.69l1.42 -5.23zm8756.8 -8270.54c-67.08,-67.08 -159.77,-108.57 -262.15,-108.57 -102.39,0 -195.09,41.49 -262.16,108.57 -67.08,67.07 -108.58,159.77 -108.58,262.15 0,52.37 10.65,101.9 29.87,146.55 20.62,47.9 49.85,89.82 85.38,123.44l0.74 0c34.06,32.25 73.78,57.98 117.21,75.27 41.27,16.43 87.63,25.48 137.52,25.48l0.02 0c102.38,0 195.07,-41.5 262.15,-108.58 67.07,-67.07 108.57,-159.77 108.57,-262.16 0,-102.38 -41.5,-195.07 -108.57,-262.15zm-7890.74 8127.21c-43.43,-18.32 -92.27,-28.46 -144.71,-28.46 -68.54,0 -131.88,17.76 -185.62,48.76 -56.03,32.34 -103.06,79.56 -136.05,136.56 -15.72,27.18 -28.17,57.06 -36.72,89.06 -8.05,30.06 -12.35,62.35 -12.35,96.33 0,102.4 41.5,195.1 108.57,262.18 67.08,67.07 159.78,108.57 262.17,108.57 102.39,0 195.09,-41.51 262.16,-108.58 67.07,-67.08 108.57,-159.78 108.57,-262.17 0,-50.05 -9.44,-97.1 -26.57,-139.47 -17.88,-44.24 -44.39,-84.5 -77.52,-118.78 -34.19,-35.37 -75.63,-64.04 -122.05,-83.74l0.12 -0.26z"/>
    <path class="fil0" d="M35359.7 3007.99l2576.14 1487.35 132.18 76.32 0 151.9 0 7812.44 0 151.9 -132.18 76.32 -6765.77 3906.23 -131.66 76.01 -131.66 -76.01 -1000.97 -577.89 -133.21 -76.92 0 -151.3 0 -11049.84 -2684.88 1550.11 0 3931.5c20.12,7.2 39.86,15.16 59.16,23.84l-0.18 0.38c101.05,45.57 190.92,110.33 264.76,189.4 69.82,74.76 125.97,162.88 164.37,260.29 37.01,93.95 57.36,195.57 57.36,301.14 0,227.49 -92.23,433.47 -241.34,582.58 -149.1,149.11 -355.08,241.33 -582.58,241.33 -227.48,0 -433.44,-92.23 -582.55,-241.34 -149.1,-149.11 -241.32,-355.09 -241.32,-582.57 0,-227.48 92.22,-433.46 241.33,-582.58 91.9,-91.91 205.42,-162.2 332.27,-202.6l0 -4073.27 0 -151.9 132.18 -76.32 3213.6 -1855.37 396.54 -228.94 0 457.15 0 11355.7 736.08 424.97 6501.93 -3753.9 0 -7508.64 -2444.08 -1411.1c-40.81,35.74 -85.26,67.64 -132.75,95.04 -122.02,70.42 -262.29,110.73 -410.46,110.73 -104.69,0 -205.79,-20.12 -299.55,-56.76 -96.37,-37.64 -183.83,-92.87 -258.43,-161.67 -82.86,-76.51 -150.18,-170.3 -196.43,-275.89 -44.69,-102 -69.51,-213.55 -69.51,-329.61 0,-227.47 92.24,-433.46 241.35,-582.56 149.11,-149.11 355.08,-241.34 582.57,-241.34 227.5,0 433.47,92.22 582.57,241.33 149.11,149.11 241.33,355.1 241.33,582.57 0,54.84 -5.58,108.97 -16.21,161.79zm-598.94 -370.54c-53.39,-53.39 -127.2,-86.43 -208.75,-86.43 -81.54,0 -155.35,33.04 -208.75,86.44 -53.41,53.4 -86.45,127.22 -86.45,208.74 0,43.46 8.6,83.64 24.07,118.95 16.25,37.12 40.41,70.54 70.44,98.27 27.02,24.92 58.57,44.88 93.21,58.41 32.35,12.63 68.56,19.58 107.48,19.58 55.27,0 105.81,-13.99 148.17,-38.44 44.36,-25.61 81.81,-63.34 108.29,-109.12 12.32,-21.29 22.17,-45.04 29.04,-70.75 6.31,-23.6 9.68,-49.36 9.68,-76.9 0,-81.54 -33.04,-155.36 -86.43,-208.75zm-7948.59 8137.5l-2.93 -0.01 0 1.02c-81.52,0 -155.32,33.04 -208.72,86.44 -53.4,53.4 -86.43,127.21 -86.43,208.76 0,81.54 33.03,155.36 86.42,208.75 53.4,53.4 127.21,86.44 208.73,86.44 81.55,0 155.37,-33.04 208.76,-86.43 53.4,-53.4 86.43,-127.22 86.43,-208.76 0,-39.25 -7.16,-76.01 -20.18,-109.06 -13.57,-34.43 -33.74,-65.94 -59.03,-93.01 -26.91,-28.82 -58.91,-52.07 -94.2,-67.93l-1.03 0c-35.28,-15.87 -73.47,-25.1 -112.85,-26.07l0 -0.03 -4.97 -0.09 0 -0.02z"/>
   </g>
   <g>
    <polygon class="fil3 str1" points="27875.79,7495.46 28854.68,6930.31 28854.68,7628.32 27875.79,8193.48 "/>
    <polygon class="fil3 str1" points="27875.79,8553.06 28854.68,7987.91 28854.68,8685.93 27875.79,9251.09 "/>
    <polygon class="fil3 str1" points="27875.79,9655.83 28854.68,9090.68 28854.68,9788.69 27875.79,10353.85 "/>
   </g>
   <g>
    <polygon class="fil3 str1" points="33312.64,8007.48 34291.52,7442.32 34291.52,8140.34 33312.64,8705.5 "/>
    <polygon class="fil3 str1" points="33312.64,9065.08 34291.52,8499.93 34291.52,9197.94 33312.64,9763.1 "/>
    <polygon class="fil3 str1" points="33312.64,10167.85 34291.52,9602.7 34291.52,10300.71 33312.64,10865.87 "/>
   </g>
  </g>
  <polygon class="fil4" points="24474.41,20333.57 24474.41,17774.61 24927.22,17774.61 25972.44,19602.97 25972.44,17774.61 26384.39,17774.61 26384.39,20333.57 25934.98,20333.57 24889.77,18505.21 24889.77,20333.57 "/>
  <path id="1" class="fil4" d="M26942.74 19732.77l0 -1958.16 415.37 0 0 1987.83c0,108.79 49.93,163.18 149.8,163.18l691.13 0c99.87,0 149.8,-54.39 149.8,-163.18l0 -1987.83 415.37 0 0 1958.16c0,400.53 -183.85,600.8 -551.55,600.8l-718.37 0c-367.7,0 -551.55,-200.27 -551.55,-600.8z"/>
  <polygon id="2" class="fil4" points="30214.56,18182.56 30214.56,17774.61 32110.92,17774.61 32110.92,18182.56 31368.72,18182.56 31368.72,20333.57 30953.36,20333.57 30953.36,18182.56 "/>
  <path id="3" class="fil4" d="M32284.55 19747.6l0 -775.1c0,-390.64 179.31,-585.97 537.92,-585.97l442.61 0c356.34,0 534.51,195.33 534.51,585.97l0 556.3 -1116.7 0 0 255.89c0,113.73 52.21,170.6 156.61,170.6l892 0 0 233.64 -180.44 144.64 -728.59 0c-358.61,0 -537.92,-195.32 -537.92,-585.97zm398.34 -567.42l721.77 0 0 -244.77c0,-116.2 -53.33,-174.3 -160.01,-174.3l-405.15 0c-104.4,0 -156.61,58.1 -156.61,174.3l0 244.77z"/>
  <path id="4" class="fil4" d="M34255.81 19747.6l0 -775.1c0,-390.64 179.31,-585.97 537.92,-585.97l643.48 0 180.43 144.64 0 229.94 -806.88 0c-104.41,0 -156.61,58.1 -156.61,174.3l0 849.28c0,113.73 52.2,170.6 156.61,170.6l806.88 0 0 233.64 -180.43 144.64 -643.48 0c-358.61,0 -537.92,-195.32 -537.92,-585.97z"/>
  <path id="5" class="fil4" d="M36029.6 20333.57l0 -2744.39 398.34 0 0 797.35 582.19 0c356.34,0 534.51,195.33 534.51,585.97l0 1361.07 -394.93 0 0 -1398.16c0,-116.2 -53.34,-174.3 -160.02,-174.3l-561.75 0 0 1572.46 -398.34 0z"/>
  <polygon id="6" class="fil5" points="29169.36,19387.87 29169.36,19017 30166.9,19017 30166.9,19387.87 "/>
  <polygon id="7" class="fil1 str0" points="24474.41,20333.57 24474.41,17774.61 24927.22,17774.61 25972.44,19602.97 25972.44,17774.61 26384.39,17774.61 26384.39,20333.57 25934.98,20333.57 24889.77,18505.21 24889.77,20333.57 "/>
  <path id="8" class="fil1 str0" d="M26942.74 19732.77l0 -1958.16 415.37 0 0 1987.83c0,108.79 49.93,163.18 149.8,163.18l691.13 0c99.87,0 149.8,-54.39 149.8,-163.18l0 -1987.83 415.37 0 0 1958.16c0,400.53 -183.85,600.8 -551.55,600.8l-718.37 0c-367.7,0 -551.55,-200.27 -551.55,-600.8z"/>
  <polygon id="9" class="fil1 str0" points="30214.56,18182.56 30214.56,17774.61 32110.92,17774.61 32110.92,18182.56 31368.72,18182.56 31368.72,20333.57 30953.36,20333.57 30953.36,18182.56 "/>
  <path id="10" class="fil1 str0" d="M32284.55 19747.6l0 -775.1c0,-390.64 179.31,-585.97 537.92,-585.97l442.61 0c356.34,0 534.51,195.33 534.51,585.97l0 556.3 -1116.7 0 0 255.89c0,113.73 52.21,170.6 156.61,170.6l892 0 0 233.64 -180.44 144.64 -728.59 0c-358.61,0 -537.92,-195.32 -537.92,-585.97zm398.34 -567.42l721.77 0 0 -244.77c0,-116.2 -53.33,-174.3 -160.01,-174.3l-405.15 0c-104.4,0 -156.61,58.1 -156.61,174.3l0 244.77z"/>
  <path id="11" class="fil1 str0" d="M34255.81 19747.6l0 -775.1c0,-390.64 179.31,-585.97 537.92,-585.97l643.48 0 180.43 144.64 0 229.94 -806.88 0c-104.41,0 -156.61,58.1 -156.61,174.3l0 849.28c0,113.73 52.2,170.6 156.61,170.6l806.88 0 0 233.64 -180.43 144.64 -643.48 0c-358.61,0 -537.92,-195.32 -537.92,-585.97z"/>
  <path id="12" class="fil1 str0" d="M36029.6 20333.57l0 -2744.39 398.34 0 0 797.35 582.19 0c356.34,0 534.51,195.33 534.51,585.97l0 1361.07 -394.93 0 0 -1398.16c0,-116.2 -53.34,-174.3 -160.02,-174.3l-561.75 0 0 1572.46 -398.34 0z"/>
  <polygon id="13" class="fil1" points="29169.36,19387.87 29169.36,19017 30166.9,19017 30166.9,19387.87 "/>
  <line class="fil6 str2" x1="24082.42" y1="4814.94" x2="3769.16" y2= "4814.94" />
  <line class="fil6 str3" x1="59535.63" y1="12437.93" x2="38066.75" y2= "12437.93" />
  <line class="fil6 str4" x1="59542.29" y1="4771.68" x2="38068" y2= "4771.68" />
  <line class="fil6 str4" x1="24083.27" y1="12445.34" x2="3768.19" y2= "12445.34" />
  <ellipse class="fil6 str2" transform="matrix(0.998461 0.0554601 -0.0554601 0.998461 3045.78 4809.83)" rx="719.66" ry="740.83"/>
  <ellipse class="fil6 str2" transform="matrix(0.998461 0.0554601 -0.0554601 0.998461 60295.9 12438.5)" rx="719.66" ry="740.83"/>
  <ellipse class="fil6 str5" transform="matrix(0.998461 0.0554601 -0.0554601 0.998461 60264.1 4776.83)" rx="719.66" ry="740.83"/>
  <ellipse class="fil6 str5" transform="matrix(0.998159 -0.060648 0.060648 0.998159 3044.08 12432.4)" rx="719.66" ry="740.83"/>
  <polygon class="fil7" points="3769.8,11336.28 3769.8,6041.3 4706.01,6041.3 4706.01,8166.97 6939.11,8166.97 6939.11,6041.3 7875.33,6041.3 7875.33,11336.28 6939.11,11336.28 6939.11,9011.09 4706.01,9011.09 4706.01,11336.28 "/>
  <path id="1" class="fil7" d="M8673.41 11152.11l1634.54 -5110.81 1450.36 0 1634.54 5110.81 -122.78 184.17 -775.06 0 -368.35 -1174.1 -2194.73 0 -360.67 1174.1 -775.06 0 -122.79 -184.17zm1519.43 -1834.06l1680.58 0 -767.39 -2432.62 -145.8 0 -767.39 2432.62z"/>
  <path id="2" class="fil7" d="M14114.19 10093.11l0 -2808.64c0,-828.78 414.39,-1243.17 1243.17,-1243.17l2094.97 0 452.76 353 0 491.13 -2517.03 0c-225.11,0 -337.66,112.55 -337.66,337.65l0 2931.42c0,225.1 112.55,337.65 337.66,337.65l2517.03 0 0 491.13 -452.76 353 -2094.97 0c-828.78,0 -1243.17,-414.39 -1243.17,-1243.17z"/>
  <polygon id="3" class="fil7" points="18941.06,11336.28 18941.06,6041.3 19877.27,6041.3 19877.27,8366.49 21956.89,6041.3 22824.04,6041.3 22916.13,6233.15 21135.79,8220.68 23107.98,11144.43 23015.89,11336.28 22156.42,11336.28 20529.55,8895.99 19877.27,9609.66 19877.27,11336.28 "/>
  <polygon class="fil0" points="39268.17,6879.27 39268.17,6035.16 43542.45,6035.16 43542.45,6879.27 41869.57,6879.27 41869.57,11330.05 40933.38,11330.05 40933.38,6879.27 "/>
  <polygon id="1" class="fil0" points="44378.89,11330.05 44378.89,6035.16 45315.09,6035.16 45315.09,8160.79 47548.15,8160.79 47548.15,6035.16 48484.35,6035.16 48484.35,11330.05 47548.15,11330.05 47548.15,9004.9 45315.09,9004.9 45315.09,11330.05 "/>
  <path id="2" class="fil0" d="M49712.15 10086.9l0 -2808.6c0,-828.76 414.39,-1243.14 1243.15,-1243.14l1772.64 0c828.77,0 1243.15,414.38 1243.15,1243.14l0 2808.6c0,828.77 -414.38,1243.15 -1243.15,1243.15l-1772.64 0c-828.76,0 -1243.15,-414.38 -1243.15,-1243.15zm936.2 61.39c0,225.1 112.55,337.65 337.65,337.65l1711.24 0c225.1,0 337.65,-112.55 337.65,-337.65l0 -2931.38c0,-225.09 -112.55,-337.64 -337.65,-337.64l-1711.24 0c-225.1,0 -337.65,112.55 -337.65,337.64l0 2931.38z"/>
  <polygon id="3" class="fil0" points="55198.89,11330.05 55198.89,6035.16 56219.5,6035.16 58575.34,9818.32 58575.34,6035.16 59503.87,6035.16 59503.87,11330.05 58490.93,11330.05 56135.09,7546.89 56135.09,11330.05 "/>
 </g>
</svg>
