<?xml version="1.0" encoding="UTF-8"?>
<!DOCTYPE svg PUBLIC "-//W3C//DTD SVG 1.1//EN" "http://www.w3.org/Graphics/SVG/1.1/DTD/svg11.dtd">
<!-- Creator: CorelDRAW 2019 (64-Bit Evaluation Version) -->
<svg xmlns="http://www.w3.org/2000/svg" xml:space="preserve" width="300mm" height="300mm" version="1.1" style="shape-rendering:geometricPrecision; text-rendering:geometricPrecision; image-rendering:optimizeQuality; fill-rule:evenodd; clip-rule:evenodd"
viewBox="0 0 30000 30000"
 xmlns:xlink="http://www.w3.org/1999/xlink"
 xmlns:xodm="http://www.corel.com/coreldraw/odm/2003">
 <defs>
  <style type="text/css">
   <![CDATA[
    .str0 {stroke:#0098DA;stroke-width:17.64;stroke-miterlimit:2.61313}
    .fil2 {fill:#FEFEFE}
    .fil0 {fill:#00AFEF;fill-rule:nonzero}
    .fil1 {fill:#6D3CC1;fill-rule:nonzero}
   ]]>
  </style>
 </defs>
 <g id="Layer_x0020_1">
  <metadata id="CorelCorpID_0Corel-Layer"/>
  <g id="_2631983818608">
   <g>
    <path class="fil0" d="M7798.79 23932.77l-4306.87 -2486.58 -156.74 -90.5 -0.01 -180.14 0 -12970.37 0.01 -180.13 156.74 -90.5 11232.66 -6485.19 156.74 -90.5 156.75 90.5 1619.25 934.91 154.27 89.08 1.25 180.33 128.05 18591.44 4648.39 -2682.05 0.16 -6724.06c-49.8,-13.11 -98.63,-29.25 -146.26,-48.21 -148.49,-59.13 -282.42,-145.35 -395.45,-252.36l0.59 -0.61c-123,-116.6 -221.68,-255.91 -288.04,-410.05 -65,-151.01 -101.03,-316.93 -101.03,-490.67 0,-343.06 139.09,-653.7 363.94,-878.54 224.84,-224.84 535.48,-363.93 878.56,-363.93 343.07,0 653.69,139.09 878.53,363.93 224.84,224.87 363.93,535.48 363.93,878.54 0,343.08 -139.09,653.72 -363.93,878.56 -154.16,154.18 -348.67,268.03 -566.3,324.37l-0.16 6903.23 -0.02 180.18 -156.73 90.45 -5269.23 3040.27 -464.09 267.77 -3.7 -537.17 -130.5 -18948.3 -1308.23 -755.34 -10919.16 6304.19 0 12610.1 4150.2 2396.13c78.29,-79.15 167.32,-148.02 264.83,-204.3 183.68,-106 395.24,-166.68 619.21,-166.68 169.76,0 333.34,35.32 483.75,99.13l1.23 0c154.34,65.49 292.99,161.71 408.35,281.07 109.59,113.41 197.99,248.29 258.52,398.04 58.43,144.54 90.62,301.32 90.62,464.21 0,343.07 -139.09,653.7 -363.93,878.57 -224.84,224.85 -535.48,363.94 -878.54,363.94 -343.09,0 -653.73,-139.09 -878.57,-363.93 -224.84,-224.86 -363.93,-535.49 -363.93,-878.58 0,-110.07 14.79,-217.93 42.53,-321.57l2.36 -8.68zm14538.18 -13730.89c-111.35,-111.35 -265.24,-180.25 -435.22,-180.25 -169.99,0 -323.89,68.9 -435.25,180.25 -111.36,111.35 -180.26,265.26 -180.26,435.23 0,86.94 17.68,169.18 49.6,243.3 34.23,79.53 82.76,149.13 141.74,204.94l1.22 0c56.56,53.55 122.51,96.26 194.61,124.98 68.52,27.27 145.48,42.29 228.31,42.29l0.03 0c169.98,0 323.87,-68.89 435.22,-180.26 111.36,-111.35 180.25,-265.25 180.25,-435.25 0,-169.97 -68.89,-323.86 -180.25,-435.23zm-13100.33 13492.93c-72.1,-30.42 -153.18,-47.25 -240.24,-47.25 -113.8,0 -218.96,29.49 -308.17,80.96 -93.02,53.68 -171.11,132.08 -225.88,226.72 -26.1,45.12 -46.76,94.73 -60.97,147.85 -13.36,49.92 -20.49,103.51 -20.49,159.93 0,170 68.89,323.91 180.25,435.27 111.35,111.36 265.25,180.25 435.26,180.25 169.99,0 323.88,-68.91 435.23,-180.26 111.36,-111.37 180.25,-265.27 180.25,-435.26 0,-83.09 -15.68,-161.21 -44.1,-231.55 -29.69,-73.44 -73.71,-140.29 -128.71,-197.2 -56.76,-58.72 -125.55,-106.31 -202.62,-139.02l0.19 -0.44z"/>
    <path class="fil1" d="M22056.48 5356.99l4276.95 2469.32 219.45 126.71 0 252.19 0 12970.34 0 252.19 -219.45 126.71 -11232.63 6485.18 -218.6 126.19 -218.58 -126.19 -1661.82 -959.43 -221.17 -127.69 0 -251.2 0 -18345.12 -4457.47 2573.52 0 6527.14c33.4,11.95 66.17,25.17 98.21,39.58l-0.29 0.64c167.76,75.65 316.97,183.17 439.56,314.43 115.92,124.12 209.13,270.43 272.88,432.14 61.46,155.99 95.23,324.7 95.23,499.95 0,377.69 -153.11,719.67 -400.66,967.22 -247.55,247.55 -589.52,400.66 -967.22,400.66 -377.66,0 -719.61,-153.13 -967.16,-400.68 -247.54,-247.54 -400.65,-589.52 -400.65,-967.2 0,-377.66 153.11,-719.62 400.66,-967.2 152.59,-152.59 341.05,-269.28 551.64,-336.37l0 -6762.5 0 -252.19 219.45 -126.7 5335.27 -3080.32 658.34 -380.09 0 758.98 0 18852.9 1222.06 705.54 10794.61 -6232.28 0 -12465.96 -4057.69 -2342.74c-67.77,59.35 -141.57,112.31 -220.41,157.8 -202.58,116.91 -435.46,183.83 -681.45,183.83 -173.8,0 -341.65,-33.4 -497.32,-94.23 -159.98,-62.49 -305.19,-154.19 -429.05,-268.42 -137.56,-127.02 -249.32,-282.72 -326.11,-458.03 -74.2,-169.34 -115.4,-354.54 -115.4,-547.22 0,-377.66 153.14,-719.65 400.69,-967.18 247.55,-247.55 589.51,-400.68 967.19,-400.68 377.7,0 719.65,153.11 967.2,400.66 247.55,247.55 400.66,589.54 400.66,967.2 0,91.04 -9.26,180.9 -26.92,268.6zm-994.36 -615.17c-88.65,-88.65 -211.19,-143.5 -346.58,-143.5 -135.37,0 -257.91,54.85 -346.56,143.51 -88.67,88.66 -143.52,211.22 -143.52,346.56 0,72.15 14.27,138.86 39.95,197.48 26.98,61.62 67.09,117.11 116.95,163.15 44.85,41.37 97.24,74.51 154.75,96.97 53.71,20.98 113.82,32.51 178.43,32.51 91.77,0 175.67,-23.23 245.99,-63.82 73.65,-42.52 135.84,-105.16 179.8,-181.16 20.45,-35.35 36.79,-74.77 48.2,-117.46 10.49,-39.18 16.08,-81.95 16.08,-127.67 0,-135.38 -54.85,-257.93 -143.49,-346.57zm-13196.39 13510.01l-4.86 -0.02 0 1.7c-135.34,0 -257.87,54.85 -346.52,143.51 -88.66,88.65 -143.5,211.19 -143.5,346.57 0,135.38 54.84,257.94 143.48,346.58 88.66,88.66 211.2,143.51 346.54,143.51 135.4,0 257.95,-54.85 346.59,-143.5 88.65,-88.64 143.5,-211.21 143.5,-346.59 0,-65.15 -11.89,-126.18 -33.51,-181.06 -22.53,-57.16 -56.02,-109.46 -98,-154.4 -44.69,-47.86 -97.81,-86.45 -156.4,-112.79l-1.7 0c-58.59,-26.34 -121.99,-41.67 -187.37,-43.27l0 -0.06 -8.25 -0.15 0 -0.03z"/>
   </g>
   <g>
    <polygon class="fil2 str0" points="9631.58,12807.16 11256.74,11868.89 11256.74,13027.74 9631.58,13966.03 "/>
    <polygon class="fil2 str0" points="9631.58,14563.02 11256.74,13624.74 11256.74,14783.59 9631.58,15721.88 "/>
    <polygon class="fil2 str0" points="9631.58,16393.85 11256.74,15455.57 11256.74,16614.43 9631.58,17552.72 "/>
   </g>
   <g>
    <polygon class="fil2 str0" points="18657.92,13657.22 20283.08,12718.95 20283.08,13877.8 18657.92,14816.09 "/>
    <polygon class="fil2 str0" points="18657.92,15413.08 20283.08,14474.8 20283.08,15633.66 18657.92,16571.95 "/>
    <polygon class="fil2 str0" points="18657.92,17243.91 20283.08,16305.63 20283.08,17464.49 18657.92,18402.78 "/>
   </g>
  </g>
 </g>
</svg>
